<?xml version="1.0" standalone="no"?>
<!DOCTYPE svg PUBLIC "-//W3C//DTD SVG 20010904//EN"
 "http://www.w3.org/TR/2001/REC-SVG-20010904/DTD/svg10.dtd">
<svg version="1.0" xmlns="http://www.w3.org/2000/svg"
 width="512.000000pt" height="512.000000pt" viewBox="0 0 512.000000 512.000000"
 preserveAspectRatio="xMidYMid meet">
<metadata>
Created by potrace 1.14, written by Peter Selinger 2001-2017
</metadata>
<g transform="translate(0.000000,512.000000) scale(0.100000,-0.100000)"
fill="#000000" stroke="none">
<path d="M3868 5115 c-2 -2 -46 -6 -98 -9 -52 -4 -102 -9 -110 -11 -8 -2 -37
-7 -65 -10 -67 -7 -102 -13 -220 -37 -55 -11 -107 -21 -115 -23 -99 -19 -452
-130 -525 -164 -11 -6 -56 -24 -100 -42 -280 -112 -728 -384 -953 -579 -84
-72 -96 -98 -76 -156 l14 -39 -67 -62 c-37 -35 -70 -63 -74 -63 -4 0 -19 6
-34 14 -15 8 -34 13 -43 11 -9 -2 -25 -4 -36 -4 -28 -1 -179 -160 -313 -328
-150 -188 -290 -403 -387 -590 -63 -124 -146 -313 -146 -333 0 -9 -3 -20 -8
-24 -4 -4 -7 -11 -8 -14 0 -4 -3 -14 -7 -22 -11 -27 -56 -179 -61 -202 -2 -13
-9 -41 -15 -63 -6 -22 -13 -58 -17 -80 -3 -22 -12 -78 -20 -125 -13 -83 -14
-447 -1 -496 3 -12 8 -39 11 -59 35 -221 151 -480 295 -662 l41 -52 -359 -360
c-361 -362 -378 -382 -367 -437 13 -67 87 -108 150 -85 13 6 185 170 381 366
l356 356 42 -34 c211 -170 472 -278 771 -317 149 -19 445 -7 581 24 204 46
417 112 473 146 38 23 63 73 55 112 -5 24 1 29 84 69 48 24 91 45 95 47 3 1
15 -6 25 -17 24 -25 61 -39 95 -35 45 5 282 156 458 292 666 517 1173 1261
1409 2072 53 183 69 271 57 308 -12 34 -50 71 -74 72 -8 0 -11 7 -8 18 3 9 8
37 11 62 3 25 8 54 10 65 2 11 4 27 4 36 1 9 16 20 39 27 45 14 76 45 87 87
10 41 14 472 5 570 -11 113 -21 207 -26 230 -2 11 -7 43 -10 70 -4 28 -8 53
-10 56 -2 4 -6 24 -10 45 -7 52 -42 194 -54 221 -17 41 -33 47 -261 98 -32 7
-204 33 -261 40 -27 3 -69 8 -95 11 -46 6 -509 14 -515 9z"/>
</g>
</svg>
